<?xml version="1.0" encoding="UTF-8"?>
<!DOCTYPE svg
  PUBLIC '-//W3C//DTD SVG 1.1//EN'
  'http://www.w3.org/Graphics/SVG/1.1/DTD/svg11.dtd'>
<svg version="1.1" xmlns="http://www.w3.org/2000/svg" width="80.280mm" height="23.764mm">
    <!--Autogenerated with python-barcode 0.16.1-->
    <g id="barcode_group">
        <rect width="100%" height="100%" style="fill:white"/>
        <rect x="2.540mm" y="1.000mm" width="0.400mm" height="15.000mm" style="fill:black;"/>
        <rect x="3.140mm" y="1.000mm" width="0.200mm" height="15.000mm" style="fill:black;"/>
        <rect x="3.740mm" y="1.000mm" width="0.200mm" height="15.000mm" style="fill:black;"/>
        <rect x="4.740mm" y="1.000mm" width="0.200mm" height="15.000mm" style="fill:black;"/>
        <rect x="5.340mm" y="1.000mm" width="0.400mm" height="15.000mm" style="fill:black;"/>
        <rect x="6.540mm" y="1.000mm" width="0.200mm" height="15.000mm" style="fill:black;"/>
        <rect x="6.940mm" y="1.000mm" width="0.200mm" height="15.000mm" style="fill:black;"/>
        <rect x="7.540mm" y="1.000mm" width="0.800mm" height="15.000mm" style="fill:black;"/>
        <rect x="8.540mm" y="1.000mm" width="0.200mm" height="15.000mm" style="fill:black;"/>
        <rect x="9.140mm" y="1.000mm" width="0.200mm" height="15.000mm" style="fill:black;"/>
        <rect x="9.740mm" y="1.000mm" width="0.800mm" height="15.000mm" style="fill:black;"/>
        <rect x="10.740mm" y="1.000mm" width="0.200mm" height="15.000mm" style="fill:black;"/>
        <rect x="11.340mm" y="1.000mm" width="0.200mm" height="15.000mm" style="fill:black;"/>
        <rect x="11.740mm" y="1.000mm" width="0.200mm" height="15.000mm" style="fill:black;"/>
        <rect x="12.340mm" y="1.000mm" width="0.800mm" height="15.000mm" style="fill:black;"/>
        <rect x="13.540mm" y="1.000mm" width="0.200mm" height="15.000mm" style="fill:black;"/>
        <rect x="13.940mm" y="1.000mm" width="0.800mm" height="15.000mm" style="fill:black;"/>
        <rect x="15.140mm" y="1.000mm" width="0.200mm" height="15.000mm" style="fill:black;"/>
        <rect x="15.740mm" y="1.000mm" width="0.600mm" height="15.000mm" style="fill:black;"/>
        <rect x="16.740mm" y="1.000mm" width="0.200mm" height="15.000mm" style="fill:black;"/>
        <rect x="17.340mm" y="1.000mm" width="0.400mm" height="15.000mm" style="fill:black;"/>
        <rect x="17.940mm" y="1.000mm" width="0.200mm" height="15.000mm" style="fill:black;"/>
        <rect x="18.340mm" y="1.000mm" width="0.600mm" height="15.000mm" style="fill:black;"/>
        <rect x="19.340mm" y="1.000mm" width="0.400mm" height="15.000mm" style="fill:black;"/>
        <rect x="20.140mm" y="1.000mm" width="0.200mm" height="15.000mm" style="fill:black;"/>
        <rect x="20.540mm" y="1.000mm" width="0.600mm" height="15.000mm" style="fill:black;"/>
        <rect x="21.540mm" y="1.000mm" width="0.400mm" height="15.000mm" style="fill:black;"/>
        <rect x="22.340mm" y="1.000mm" width="0.200mm" height="15.000mm" style="fill:black;"/>
        <rect x="22.940mm" y="1.000mm" width="0.400mm" height="15.000mm" style="fill:black;"/>
        <rect x="23.540mm" y="1.000mm" width="0.200mm" height="15.000mm" style="fill:black;"/>
        <rect x="24.540mm" y="1.000mm" width="0.200mm" height="15.000mm" style="fill:black;"/>
        <rect x="25.540mm" y="1.000mm" width="0.400mm" height="15.000mm" style="fill:black;"/>
        <rect x="26.140mm" y="1.000mm" width="0.200mm" height="15.000mm" style="fill:black;"/>
        <rect x="26.740mm" y="1.000mm" width="0.200mm" height="15.000mm" style="fill:black;"/>
        <rect x="27.340mm" y="1.000mm" width="0.800mm" height="15.000mm" style="fill:black;"/>
        <rect x="28.340mm" y="1.000mm" width="0.200mm" height="15.000mm" style="fill:black;"/>
        <rect x="28.940mm" y="1.000mm" width="0.200mm" height="15.000mm" style="fill:black;"/>
        <rect x="29.540mm" y="1.000mm" width="0.400mm" height="15.000mm" style="fill:black;"/>
        <rect x="30.740mm" y="1.000mm" width="0.200mm" height="15.000mm" style="fill:black;"/>
        <rect x="31.140mm" y="1.000mm" width="0.200mm" height="15.000mm" style="fill:black;"/>
        <rect x="31.740mm" y="1.000mm" width="0.800mm" height="15.000mm" style="fill:black;"/>
        <rect x="32.940mm" y="1.000mm" width="0.200mm" height="15.000mm" style="fill:black;"/>
        <rect x="33.340mm" y="1.000mm" width="0.200mm" height="15.000mm" style="fill:black;"/>
        <rect x="33.940mm" y="1.000mm" width="0.200mm" height="15.000mm" style="fill:black;"/>
        <rect x="34.940mm" y="1.000mm" width="0.400mm" height="15.000mm" style="fill:black;"/>
        <rect x="35.540mm" y="1.000mm" width="0.200mm" height="15.000mm" style="fill:black;"/>
        <rect x="36.140mm" y="1.000mm" width="0.400mm" height="15.000mm" style="fill:black;"/>
        <rect x="36.940mm" y="1.000mm" width="0.600mm" height="15.000mm" style="fill:black;"/>
        <rect x="37.740mm" y="1.000mm" width="0.200mm" height="15.000mm" style="fill:black;"/>
        <rect x="38.740mm" y="1.000mm" width="0.200mm" height="15.000mm" style="fill:black;"/>
        <rect x="39.140mm" y="1.000mm" width="0.400mm" height="15.000mm" style="fill:black;"/>
        <rect x="39.940mm" y="1.000mm" width="0.200mm" height="15.000mm" style="fill:black;"/>
        <rect x="40.740mm" y="1.000mm" width="0.800mm" height="15.000mm" style="fill:black;"/>
        <rect x="41.740mm" y="1.000mm" width="0.200mm" height="15.000mm" style="fill:black;"/>
        <rect x="42.140mm" y="1.000mm" width="0.800mm" height="15.000mm" style="fill:black;"/>
        <rect x="43.140mm" y="1.000mm" width="0.600mm" height="15.000mm" style="fill:black;"/>
        <rect x="43.940mm" y="1.000mm" width="0.200mm" height="15.000mm" style="fill:black;"/>
        <rect x="44.340mm" y="1.000mm" width="0.200mm" height="15.000mm" style="fill:black;"/>
        <rect x="44.740mm" y="1.000mm" width="0.600mm" height="15.000mm" style="fill:black;"/>
        <rect x="45.740mm" y="1.000mm" width="0.400mm" height="15.000mm" style="fill:black;"/>
        <rect x="46.540mm" y="1.000mm" width="0.200mm" height="15.000mm" style="fill:black;"/>
        <rect x="46.940mm" y="1.000mm" width="0.200mm" height="15.000mm" style="fill:black;"/>
        <rect x="47.740mm" y="1.000mm" width="0.400mm" height="15.000mm" style="fill:black;"/>
        <rect x="48.740mm" y="1.000mm" width="0.400mm" height="15.000mm" style="fill:black;"/>
        <rect x="49.540mm" y="1.000mm" width="0.200mm" height="15.000mm" style="fill:black;"/>
        <rect x="49.940mm" y="1.000mm" width="0.200mm" height="15.000mm" style="fill:black;"/>
        <rect x="50.940mm" y="1.000mm" width="0.200mm" height="15.000mm" style="fill:black;"/>
        <rect x="51.540mm" y="1.000mm" width="0.400mm" height="15.000mm" style="fill:black;"/>
        <rect x="52.140mm" y="1.000mm" width="0.200mm" height="15.000mm" style="fill:black;"/>
        <rect x="53.140mm" y="1.000mm" width="0.200mm" height="15.000mm" style="fill:black;"/>
        <rect x="53.740mm" y="1.000mm" width="0.400mm" height="15.000mm" style="fill:black;"/>
        <rect x="54.940mm" y="1.000mm" width="0.200mm" height="15.000mm" style="fill:black;"/>
        <rect x="55.340mm" y="1.000mm" width="0.200mm" height="15.000mm" style="fill:black;"/>
        <rect x="56.340mm" y="1.000mm" width="0.400mm" height="15.000mm" style="fill:black;"/>
        <rect x="56.940mm" y="1.000mm" width="0.200mm" height="15.000mm" style="fill:black;"/>
        <rect x="57.540mm" y="1.000mm" width="0.200mm" height="15.000mm" style="fill:black;"/>
        <rect x="57.940mm" y="1.000mm" width="0.400mm" height="15.000mm" style="fill:black;"/>
        <rect x="59.140mm" y="1.000mm" width="0.200mm" height="15.000mm" style="fill:black;"/>
        <rect x="59.740mm" y="1.000mm" width="0.200mm" height="15.000mm" style="fill:black;"/>
        <rect x="60.340mm" y="1.000mm" width="0.200mm" height="15.000mm" style="fill:black;"/>
        <rect x="60.740mm" y="1.000mm" width="0.400mm" height="15.000mm" style="fill:black;"/>
        <rect x="61.940mm" y="1.000mm" width="0.200mm" height="15.000mm" style="fill:black;"/>
        <rect x="62.540mm" y="1.000mm" width="0.200mm" height="15.000mm" style="fill:black;"/>
        <rect x="63.140mm" y="1.000mm" width="0.800mm" height="15.000mm" style="fill:black;"/>
        <rect x="64.140mm" y="1.000mm" width="0.200mm" height="15.000mm" style="fill:black;"/>
        <rect x="65.140mm" y="1.000mm" width="0.400mm" height="15.000mm" style="fill:black;"/>
        <rect x="65.740mm" y="1.000mm" width="0.200mm" height="15.000mm" style="fill:black;"/>
        <rect x="66.340mm" y="1.000mm" width="0.600mm" height="15.000mm" style="fill:black;"/>
        <rect x="67.140mm" y="1.000mm" width="0.200mm" height="15.000mm" style="fill:black;"/>
        <rect x="67.740mm" y="1.000mm" width="0.400mm" height="15.000mm" style="fill:black;"/>
        <rect x="68.540mm" y="1.000mm" width="0.600mm" height="15.000mm" style="fill:black;"/>
        <rect x="69.340mm" y="1.000mm" width="0.200mm" height="15.000mm" style="fill:black;"/>
        <rect x="69.940mm" y="1.000mm" width="0.400mm" height="15.000mm" style="fill:black;"/>
        <rect x="70.740mm" y="1.000mm" width="0.600mm" height="15.000mm" style="fill:black;"/>
        <rect x="71.540mm" y="1.000mm" width="0.200mm" height="15.000mm" style="fill:black;"/>
        <rect x="72.140mm" y="1.000mm" width="0.400mm" height="15.000mm" style="fill:black;"/>
        <rect x="72.940mm" y="1.000mm" width="0.600mm" height="15.000mm" style="fill:black;"/>
        <rect x="74.140mm" y="1.000mm" width="0.200mm" height="15.000mm" style="fill:black;"/>
        <rect x="74.540mm" y="1.000mm" width="0.400mm" height="15.000mm" style="fill:black;"/>
        <rect x="75.140mm" y="1.000mm" width="0.400mm" height="15.000mm" style="fill:black;"/>
        <rect x="76.140mm" y="1.000mm" width="0.600mm" height="15.000mm" style="fill:black;"/>
        <rect x="76.940mm" y="1.000mm" width="0.200mm" height="15.000mm" style="fill:black;"/>
        <rect x="77.340mm" y="1.000mm" width="0.400mm" height="15.000mm" style="fill:black;"/>
        <text x="40.140mm" y="21.000mm" style="fill:black;font-size:10pt;text-anchor:middle;">https://github.com/Alghifari888</text>
    </g>
</svg>
